<svg xmlns="http://www.w3.org/2000/svg" xmlns:xlink="http://www.w3.org/1999/xlink" width="500" zoomAndPan="magnify" viewBox="0 0 375 374.999991" height="500" preserveAspectRatio="xMidYMid meet" version="1.0"><defs><clipPath id="82cfd88eee"><path d="M 54 6.609375 L 353.855469 6.609375 L 353.855469 368.109375 L 54 368.109375 Z M 54 6.609375 " clip-rule="nonzero"/></clipPath><clipPath id="aaad5a9402"><path d="M 57 9 L 353.855469 9 L 353.855469 368.109375 L 57 368.109375 Z M 57 9 " clip-rule="nonzero"/></clipPath><clipPath id="c7af12641c"><path d="M 54 6.609375 L 112 6.609375 L 112 368.109375 L 54 368.109375 Z M 54 6.609375 " clip-rule="nonzero"/></clipPath><clipPath id="8af5d4cacf"><path d="M 56 348 L 112 348 L 112 368.109375 L 56 368.109375 Z M 56 348 " clip-rule="nonzero"/></clipPath><clipPath id="c45b4f1130"><path d="M 20.855469 58 L 81 58 L 81 317 L 20.855469 317 Z M 20.855469 58 " clip-rule="nonzero"/></clipPath></defs><g clip-path="url(#82cfd88eee)"><path fill="#eceff1" d="M 84.414062 6.675781 L 323.769531 6.675781 C 340.335938 6.675781 353.894531 20.234375 353.894531 36.804688 L 353.894531 337.914062 C 353.894531 354.484375 340.339844 368.039062 323.769531 368.039062 L 84.414062 368.039062 C 67.84375 368.039062 54.289062 354.484375 54.289062 337.914062 L 54.289062 36.804688 C 54.289062 20.234375 67.84375 6.675781 84.414062 6.675781 Z M 84.414062 6.675781 " fill-opacity="1" fill-rule="evenodd"/></g><g clip-path="url(#aaad5a9402)"><path fill="#d1d1d6" d="M 336.488281 9.511719 C 346.746094 14.332031 353.894531 24.773438 353.894531 36.804688 L 353.894531 337.914062 C 353.894531 354.484375 340.335938 368.039062 323.769531 368.039062 L 84.414062 368.039062 C 72.382812 368.039062 61.941406 360.890625 57.125 350.632812 C 60.996094 352.449219 65.304688 353.46875 69.84375 353.46875 L 309.199219 353.46875 C 325.765625 353.46875 339.324219 339.914062 339.324219 323.34375 L 339.324219 22.230469 C 339.324219 17.691406 338.304688 13.382812 336.488281 9.511719 Z M 336.488281 9.511719 " fill-opacity="1" fill-rule="evenodd"/></g><g clip-path="url(#c7af12641c)"><path fill="#6cf5c2" d="M 84.414062 6.675781 L 111.121094 6.675781 L 111.121094 368.039062 L 84.414062 368.039062 C 67.84375 368.039062 54.289062 354.484375 54.289062 337.914062 L 54.289062 36.804688 C 54.289062 20.234375 67.84375 6.675781 84.414062 6.675781 Z M 84.414062 6.675781 " fill-opacity="1" fill-rule="evenodd"/></g><g clip-path="url(#8af5d4cacf)"><path fill="#00e499" d="M 111.121094 368.039062 L 111.121094 353.46875 L 69.84375 353.46875 C 65.304688 353.46875 60.996094 352.449219 57.125 350.632812 C 57.03125 350.429688 56.9375 350.226562 56.847656 350.023438 C 61.535156 360.609375 72.148438 368.039062 84.414062 368.039062 Z M 56.769531 349.847656 C 56.703125 349.699219 56.640625 349.546875 56.578125 349.398438 C 56.640625 349.546875 56.703125 349.699219 56.769531 349.847656 Z M 56.457031 349.105469 L 56.335938 348.792969 C 56.375 348.898438 56.417969 349.003906 56.457031 349.105469 Z M 56.457031 349.105469 " fill-opacity="1" fill-rule="evenodd"/></g><path fill="#a79ba7" d="M 224.503906 121.734375 C 221.285156 121.734375 218.675781 119.125 218.675781 115.90625 C 218.675781 112.6875 221.285156 110.078125 224.503906 110.078125 L 316.699219 110.078125 C 319.917969 110.078125 322.527344 112.6875 322.527344 115.90625 C 322.527344 119.125 319.917969 121.734375 316.699219 121.734375 Z M 224.503906 300.367188 C 221.285156 300.367188 218.675781 297.757812 218.675781 294.539062 C 218.675781 291.320312 221.285156 288.710938 224.503906 288.710938 L 316.699219 288.710938 C 319.917969 288.710938 322.527344 291.320312 322.527344 294.539062 C 322.527344 297.757812 319.917969 300.367188 316.699219 300.367188 Z M 224.503906 264.640625 C 221.285156 264.640625 218.675781 262.03125 218.675781 258.8125 C 218.675781 255.59375 221.285156 252.984375 224.503906 252.984375 L 316.699219 252.984375 C 319.917969 252.984375 322.527344 255.59375 322.527344 258.8125 C 322.527344 262.03125 319.917969 264.640625 316.699219 264.640625 Z M 224.503906 228.914062 C 221.285156 228.914062 218.675781 226.304688 218.675781 223.085938 C 218.675781 219.867188 221.285156 217.257812 224.503906 217.257812 L 316.699219 217.257812 C 319.917969 217.257812 322.527344 219.867188 322.527344 223.085938 C 322.527344 226.304688 319.917969 228.914062 316.699219 228.914062 Z M 224.503906 193.1875 C 221.285156 193.1875 218.675781 190.578125 218.675781 187.359375 C 218.675781 184.140625 221.285156 181.53125 224.503906 181.53125 L 316.699219 181.53125 C 319.917969 181.53125 322.527344 184.140625 322.527344 187.359375 C 322.527344 190.578125 319.917969 193.1875 316.699219 193.1875 Z M 224.503906 157.460938 C 221.285156 157.460938 218.675781 154.851562 218.675781 151.632812 C 218.675781 148.414062 221.285156 145.804688 224.503906 145.804688 L 316.699219 145.804688 C 319.917969 145.804688 322.527344 148.414062 322.527344 151.632812 C 322.527344 154.851562 319.917969 157.460938 316.699219 157.460938 Z M 224.503906 86.007812 C 221.285156 86.007812 218.675781 83.398438 218.675781 80.179688 C 218.675781 76.960938 221.285156 74.351562 224.503906 74.351562 L 316.699219 74.351562 C 319.917969 74.351562 322.527344 76.960938 322.527344 80.179688 C 322.527344 83.398438 319.917969 86.007812 316.699219 86.007812 Z M 224.503906 86.007812 " fill-opacity="1" fill-rule="evenodd"/><path fill="#8ac9fe" d="M 139.546875 101.828125 C 137.269531 99.550781 137.269531 95.859375 139.546875 93.585938 C 141.824219 91.308594 145.511719 91.308594 147.789062 93.585938 L 158.425781 104.222656 L 189.660156 75.875 C 192.035156 73.710938 195.714844 73.886719 197.878906 76.261719 C 200.039062 78.636719 199.867188 82.316406 197.492188 84.480469 L 162.375 116.351562 L 162.34375 116.382812 C 160.070312 118.660156 156.378906 118.660156 154.101562 116.382812 Z M 139.546875 284.105469 C 137.269531 281.828125 137.269531 278.140625 139.546875 275.863281 C 141.824219 273.585938 145.511719 273.585938 147.789062 275.863281 L 158.425781 286.5 L 189.660156 258.152344 C 192.035156 255.988281 195.714844 256.164062 197.878906 258.539062 C 200.039062 260.914062 199.867188 264.59375 197.492188 266.757812 L 162.375 298.628906 L 162.34375 298.660156 C 160.070312 300.9375 156.378906 300.9375 154.101562 298.660156 Z M 139.546875 223.34375 C 137.269531 221.070312 137.269531 217.378906 139.546875 215.101562 C 141.824219 212.828125 145.511719 212.828125 147.789062 215.101562 L 158.425781 225.742188 L 189.660156 197.394531 C 192.035156 195.230469 195.714844 195.402344 197.878906 197.78125 C 200.039062 200.15625 199.867188 203.835938 197.492188 206 L 162.375 237.867188 L 162.34375 237.902344 C 160.070312 240.175781 156.378906 240.175781 154.101562 237.902344 Z M 139.546875 162.585938 C 137.269531 160.308594 137.269531 156.621094 139.546875 154.34375 C 141.824219 152.066406 145.511719 152.066406 147.789062 154.34375 L 158.425781 164.980469 L 189.660156 136.632812 C 192.035156 134.472656 195.714844 134.644531 197.878906 137.019531 C 200.039062 139.394531 199.867188 143.078125 197.492188 145.238281 L 162.375 177.109375 L 162.34375 177.140625 C 160.070312 179.417969 156.378906 179.417969 154.101562 177.140625 Z M 139.546875 162.585938 " fill-opacity="1" fill-rule="evenodd"/><g clip-path="url(#c45b4f1130)"><path fill="#a79ba7" d="M 31.164062 133.683594 L 69.949219 133.683594 C 75.601562 133.683594 80.226562 138.308594 80.226562 143.960938 L 80.226562 155.382812 C 80.226562 161.035156 75.601562 165.660156 69.949219 165.660156 L 31.164062 165.660156 C 25.511719 165.660156 20.886719 161.035156 20.886719 155.382812 L 20.886719 143.960938 C 20.886719 138.308594 25.511719 133.683594 31.164062 133.683594 Z M 31.164062 284.433594 L 69.949219 284.433594 C 75.601562 284.433594 80.226562 289.058594 80.226562 294.710938 L 80.226562 306.132812 C 80.226562 311.785156 75.601562 316.410156 69.949219 316.410156 L 31.164062 316.410156 C 25.511719 316.410156 20.886719 311.785156 20.886719 306.132812 L 20.886719 294.710938 C 20.886719 289.058594 25.511719 284.433594 31.164062 284.433594 Z M 31.164062 58.308594 L 69.949219 58.308594 C 75.601562 58.308594 80.226562 62.933594 80.226562 68.585938 L 80.226562 80.007812 C 80.226562 85.660156 75.601562 90.285156 69.949219 90.285156 L 31.164062 90.285156 C 25.511719 90.285156 20.886719 85.660156 20.886719 80.007812 L 20.886719 68.585938 C 20.886719 62.933594 25.511719 58.308594 31.164062 58.308594 Z M 31.164062 209.058594 L 69.949219 209.058594 C 75.601562 209.058594 80.226562 213.683594 80.226562 219.335938 L 80.226562 230.757812 C 80.226562 236.410156 75.601562 241.035156 69.949219 241.035156 L 31.164062 241.035156 C 25.511719 241.035156 20.886719 236.410156 20.886719 230.757812 L 20.886719 219.335938 C 20.886719 213.683594 25.511719 209.058594 31.164062 209.058594 Z M 31.164062 209.058594 " fill-opacity="1" fill-rule="evenodd"/></g><path fill="#837683" d="M 72.589844 134.03125 C 76.972656 135.203125 80.226562 139.222656 80.226562 143.960938 L 80.226562 155.382812 C 80.226562 161.035156 75.597656 165.660156 69.945312 165.660156 L 31.164062 165.660156 C 26.425781 165.660156 22.410156 162.410156 21.234375 158.027344 C 22.082031 158.253906 22.964844 158.375 23.878906 158.375 L 62.664062 158.375 C 68.316406 158.375 72.941406 153.75 72.941406 148.09375 L 72.941406 136.675781 C 72.941406 135.761719 72.816406 134.875 72.589844 134.03125 Z M 72.589844 284.78125 C 76.972656 285.957031 80.226562 289.972656 80.226562 294.710938 L 80.226562 306.132812 C 80.226562 311.785156 75.597656 316.410156 69.945312 316.410156 L 31.164062 316.410156 C 26.425781 316.410156 22.410156 313.160156 21.234375 308.777344 C 22.082031 309.003906 22.964844 309.125 23.878906 309.125 L 62.664062 309.125 C 68.316406 309.125 72.941406 304.5 72.941406 298.847656 L 72.941406 287.425781 C 72.941406 286.511719 72.816406 285.625 72.589844 284.78125 Z M 72.589844 58.65625 C 76.972656 59.828125 80.226562 63.847656 80.226562 68.585938 L 80.226562 80.007812 C 80.226562 85.660156 75.597656 90.285156 69.945312 90.285156 L 31.164062 90.285156 C 26.425781 90.285156 22.410156 87.035156 21.234375 82.652344 C 22.082031 82.878906 22.964844 83 23.878906 83 L 62.664062 83 C 68.316406 83 72.941406 78.375 72.941406 72.722656 L 72.941406 61.300781 C 72.941406 60.386719 72.816406 59.5 72.589844 58.65625 Z M 72.59375 209.40625 C 76.972656 210.578125 80.226562 214.597656 80.226562 219.335938 L 80.226562 230.757812 C 80.226562 236.410156 75.601562 241.035156 69.949219 241.035156 L 31.164062 241.035156 C 26.425781 241.035156 22.410156 237.785156 21.234375 233.402344 C 22.082031 233.628906 22.964844 233.75 23.878906 233.75 L 62.664062 233.75 C 68.316406 233.75 72.941406 229.121094 72.941406 223.46875 L 72.941406 212.050781 C 72.941406 211.136719 72.816406 210.25 72.59375 209.40625 Z M 72.59375 209.40625 " fill-opacity="1" fill-rule="evenodd"/></svg>