<svg xmlns="http://www.w3.org/2000/svg" xmlns:xlink="http://www.w3.org/1999/xlink" width="500" zoomAndPan="magnify" viewBox="0 0 375 374.999991" height="500" preserveAspectRatio="xMidYMid meet" version="1.0"><path fill="#ccd6dd" d="M 250 104.167969 C 250 115.667969 240.667969 125 229.167969 125 L 145.832031 125 C 134.332031 125 125 115.667969 125 104.167969 L 125 20.832031 C 125 9.332031 134.332031 0 145.832031 0 L 229.167969 0 C 240.667969 0 250 9.332031 250 20.832031 Z M 0 145.832031 L 0 354.167969 C 0 365.667969 9.332031 375 20.832031 375 L 354.167969 375 C 365.667969 375 375 365.667969 375 354.167969 L 375 145.832031 Z M 0 145.832031 " fill-opacity="1" fill-rule="nonzero"/><path fill="#99aab5" d="M 187.5 125 L 20.832031 125 C 9.332031 125 0 134.332031 0 145.832031 L 208.332031 145.832031 C 208.332031 134.332031 199 125 187.5 125 Z M 187.5 125 " fill-opacity="1" fill-rule="nonzero"/><path fill="#99aab5" d="M 354.167969 125 L 187.5 125 C 176 125 166.667969 134.332031 166.667969 145.832031 L 375 145.832031 C 375 134.332031 365.667969 125 354.167969 125 Z M 354.167969 125 " fill-opacity="1" fill-rule="nonzero"/><path fill="#55acee" d="M 20.832031 229.167969 L 354.167969 229.167969 L 354.167969 270.832031 L 20.832031 270.832031 Z M 20.832031 166.667969 L 354.167969 166.667969 L 354.167969 208.332031 L 20.832031 208.332031 Z M 20.832031 291.667969 L 354.167969 291.667969 L 354.167969 333.332031 L 20.832031 333.332031 Z M 20.832031 291.667969 " fill-opacity="1" fill-rule="nonzero"/><path fill="#e1e8ed" d="M 83.332031 125 L 291.667969 125 L 291.667969 375 L 83.332031 375 Z M 83.332031 125 " fill-opacity="1" fill-rule="nonzero"/><path fill="#55acee" d="M 104.167969 208.332031 L 270.832031 208.332031 L 270.832031 250 L 104.167969 250 Z M 104.167969 145.832031 L 270.832031 145.832031 L 270.832031 187.5 L 104.167969 187.5 Z M 104.167969 270.832031 L 270.832031 270.832031 L 270.832031 312.5 L 104.167969 312.5 Z M 104.167969 270.832031 " fill-opacity="1" fill-rule="nonzero"/><path fill="#3b88c3" d="M 135.417969 333.332031 L 239.582031 333.332031 L 239.582031 375 L 135.417969 375 Z M 135.417969 333.332031 " fill-opacity="1" fill-rule="nonzero"/><path fill="#dd2e44" d="M 229.167969 41.667969 L 197.917969 41.667969 L 197.917969 10.417969 L 177.082031 10.417969 L 177.082031 41.667969 L 145.832031 41.667969 L 145.832031 62.5 L 177.082031 62.5 L 177.082031 93.75 L 197.917969 93.75 L 197.917969 62.5 L 229.167969 62.5 Z M 229.167969 41.667969 " fill-opacity="1" fill-rule="nonzero"/><path fill="#99aab5" d="M 270.832031 104.167969 L 104.167969 104.167969 C 92.667969 104.167969 83.332031 113.5 83.332031 125 L 291.667969 125 C 291.667969 113.5 282.332031 104.167969 270.832031 104.167969 Z M 270.832031 104.167969 " fill-opacity="1" fill-rule="nonzero"/></svg>